<svg width="720" height="720" xmlns="http://www.w3.org/2000/svg" xmlns:xlink="http://www.w3.org/1999/xlink" xml:space="preserve" overflow="hidden"><defs><clipPath id="clip0"><rect x="280" y="0" width="720" height="720"/></clipPath></defs><g clip-path="url(#clip0)" transform="translate(-280 0)"><path d="M959.375 0.704531 899.483 649.427 639.996 719.295 380.505 649.427 320.625 0.704531 959.375 0.704531ZM838.689 132.612 639.762 132.612 437.312 132.612 446.994 210.952 639.762 210.952 650.59 210.952 639.762 215.459 454.039 292.811 460.198 369.385 639.762 369.968 736.003 370.273 729.843 472.375 639.761 497.737 639.761 497.656 639.023 497.862 552.026 475.9 546.747 412.521 546.459 412.521 465.766 412.521 465.482 412.521 476.044 534.874 639.764 583.29 639.764 583.203 640.059 583.29 802.901 535.756 824.025 292.811 639.764 292.811 639.31 292.811 639.764 292.614 830.775 210.952 838.689 132.612Z" fill="#1172B8"/></g></svg>