<svg width="720" height="720" xmlns="http://www.w3.org/2000/svg" xmlns:xlink="http://www.w3.org/1999/xlink" xml:space="preserve" overflow="hidden"><defs><clipPath id="clip0"><rect x="280" y="0" width="720" height="720"/></clipPath></defs><g clip-path="url(#clip0)" transform="translate(-280 0)"><path d="M835.664 216 835.404 216 525.232 216 532.648 288 828.284 288C823.949 351 810.842 484.562 806.028 545.406L639.982 592.219 639.982 592.562 639.615 592.562 473.456 534.25 462.073 396 543.516 396 549.284 470.156 639.762 504 639.982 504 730.313 471.594 739.605 360 458.437 360C457.079 345.594 439.6 158.031 436.552 144L842.932 144C840.657 167.75 838.342 192.25 835.664 216L835.664 216ZM316 0 374.973 653.406 639.615 720 904.953 651.969 964 0 316 0Z" fill="#E44D26" fill-rule="evenodd"/></g></svg>