<svg width="720" height="720" xmlns="http://www.w3.org/2000/svg" xmlns:xlink="http://www.w3.org/1999/xlink" xml:space="preserve" overflow="hidden"><defs><clipPath id="clip0"><rect x="280" y="0" width="720" height="720"/></clipPath></defs><g clip-path="url(#clip0)" transform="translate(-280 0)"><path d="M831.809 663.5C768.988 663.5 728.38 633.594 708.58 594.344L708.58 594.344 763.66 562.688C778.168 586.062 796.996 603.719 830.368 603.719 858.376 603.719 876.268 589.688 876.268 570.25 876.268 541.062 837.459 529.938 810.064 518.031 761.248 497.156 728.848 471.25 728.848 416.156 728.848 365.406 767.512 326.875 827.956 326.875 870.94 326.875 901.899 341.656 924.112 380.875L871.443 414.719C859.852 393.844 847.288 385.562 827.956 385.562 808.12 385.562 795.557 398.156 795.557 414.719 795.557 434.875 808.12 443.156 837.137 455.75 897.94 481.688 943.947 502.219 943.947 569.156 943.947 630.344 896.104 663.5 831.809 663.5L831.809 663.5ZM676 561.594C676 631.781 632.836 668.875 572.896 668.875 518.752 668.875 486.315 648 470.368 612L469.828 612 469.576 612 469.432 612 524.476 573.5C535.096 592.219 544.672 605.875 567.856 605.875 590.104 605.875 604 594.344 604 560.5L604 324 676 324 676 561.594ZM280 720 1000 720 1000 0 280 0 280 720Z" fill="#FFCA28" fill-rule="evenodd"/></g></svg>